<svg xmlns="http://www.w3.org/2000/svg" viewBox="0 0 300 300" width="500" height="500">
  <!-- Background Circle -->
  <circle cx="150" cy="150" r="140" fill="#f5f5f5" stroke="#e0e0e0" stroke-width="2" />
  
  <!-- App Title -->
  <text x="150" y="230" font-family="Arial, sans-serif" font-weight="bold" font-size="24" text-anchor="middle" fill="#333333">MOOD METER</text>
  
  <!-- Mood Gauge -->
  <g>
    <!-- Gauge Background -->
    <path d="M150,150 L150,60 A90,90 0 0,1 240,150 Z" fill="#ff6b6b" opacity="0.7" />
    <path d="M150,150 L240,150 A90,90 0 0,1 150,240 Z" fill="#4ecdc4" opacity="0.7" />
    <path d="M150,150 L150,240 A90,90 0 0,1 60,150 Z" fill="#1a535c" opacity="0.7" />
    <path d="M150,150 L60,150 A90,90 0 0,1 150,60 Z" fill="#ffe66d" opacity="0.7" />
    
    <!-- Center Circle -->
    <circle cx="150" cy="150" r="40" fill="white" stroke="#e0e0e0" stroke-width="2" />
    
    <!-- Emotion Icons -->
    <!-- Happy Face -->
    <circle cx="150" cy="100" r="15" fill="white" stroke="#333333" stroke-width="2" />
    <path d="M142,100 C142,103 146,106 150,106 C154,106 158,103 158,100" fill="none" stroke="#333333" stroke-width="2" stroke-linecap="round" />
    <circle cx="145" cy="97" r="2" fill="#333333" />
    <circle cx="155" cy="97" r="2" fill="#333333" />
    
    <!-- Sad Face -->
    <circle cx="150" cy="200" r="15" fill="white" stroke="#333333" stroke-width="2" />
    <path d="M142,204 C142,201 146,198 150,198 C154,198 158,201 158,204" fill="none" stroke="#333333" stroke-width="2" stroke-linecap="round" />
    <circle cx="145" cy="197" r="2" fill="#333333" />
    <circle cx="155" cy="197" r="2" fill="#333333" />
    
    <!-- Angry Face -->
    <circle cx="100" cy="150" r="15" fill="white" stroke="#333333" stroke-width="2" />
    <path d="M108,155 C108,155 104,152 100,152 C96,152 92,155 92,155" fill="none" stroke="#333333" stroke-width="2" stroke-linecap="round" />
    <path d="M95,145 L99,148" fill="none" stroke="#333333" stroke-width="2" stroke-linecap="round" />
    <path d="M105,145 L101,148" fill="none" stroke="#333333" stroke-width="2" stroke-linecap="round" />
    
    <!-- Calm Face -->
    <circle cx="200" cy="150" r="15" fill="white" stroke="#333333" stroke-width="2" />
    <path d="M192,152 C192,152 196,154 200,154 C204,154 208,152 208,152" fill="none" stroke="#333333" stroke-width="2" stroke-linecap="round" />
    <line x1="195" y1="147" x2="199" y2="147" stroke="#333333" stroke-width="2" stroke-linecap="round" />
    <line x1="201" y1="147" x2="205" y2="147" stroke="#333333" stroke-width="2" stroke-linecap="round" />
    
    <!-- Needle -->
    <line x1="150" y1="150" x2="160" y2="120" stroke="#333333" stroke-width="3" stroke-linecap="round" />
    <circle cx="150" cy="150" r="8" fill="#333333" />
  </g>
</svg>